<?xml version="1.0" encoding="UTF-8" standalone="no" ?>
<!DOCTYPE svg PUBLIC "-//W3C//DTD SVG 1.1//EN" "http://www.w3.org/Graphics/SVG/1.1/DTD/svg11.dtd">
<svg xmlns="http://www.w3.org/2000/svg" xmlns:xlink="http://www.w3.org/1999/xlink" version="1.1" width="1080" height="1080" viewBox="0 0 1080 1080" xml:space="preserve">
<desc>Created with Fabric.js 5.2.4</desc>
<defs>
</defs>
<g transform="matrix(1 0 0 1 540 540)" id="5df7d498-56db-494c-9acb-6e65ff9c36f6"  >
<rect style="stroke: none; stroke-width: 1; stroke-dasharray: none; stroke-linecap: butt; stroke-dashoffset: 0; stroke-linejoin: miter; stroke-miterlimit: 4; fill: rgb(255,255,255); fill-rule: nonzero; opacity: 1; visibility: hidden;" vector-effect="non-scaling-stroke"  x="-540" y="-540" rx="0" ry="0" width="1080" height="1080" />
</g>
<g transform="matrix(1 0 0 1 540 540)" id="846e42cb-69c1-4dea-a386-742620adf999"  >
</g>
<g transform="matrix(1 0 0 1 540 540)"  >
<g style="" vector-effect="non-scaling-stroke"   >
		<g transform="matrix(21.33 0 0 21.33 0 30.35)"  >
<path style="stroke: none; stroke-width: 1; stroke-dasharray: none; stroke-linecap: butt; stroke-dashoffset: 0; stroke-linejoin: miter; stroke-miterlimit: 4; fill: rgb(53,197,170); fill-rule: nonzero; opacity: 1;" vector-effect="non-scaling-stroke"  transform=" translate(-12, -13.43)" d="M 15 3.849 L 15 3.849 C 15.00642996006816 4.255423655825252 15.253554939840411 4.619235629226052 15.629 4.775 C 18.98853796021458 6.253207181858855 21.113852402080216 9.623399529907564 21 13.291999999999994 C 20.919366426524704 18.26256274847714 16.824562748477142 22.226633573475297 11.854000000000001 22.146 C 6.88343725152286 22.065366426524708 2.9193664265247037 17.970562748477143 3 13.000000000000002 C 3.004719628039386 9.43721634951846 5.1106849886056445 6.212591675287049 8.370999999999999 4.776000000000002 C 8.74658638882962 4.619313679533487 8.993580843180721 4.254908506818348 9 3.848 L 9 3.848 C 9.000522778953735 3.515400384137831 8.835646808305636 3.2043073023429667 8.560115934882962 3.018013138289353 C 8.284585061460287 2.8317189742357396 7.934462645862652 2.794607179158489 7.6259999999999994 2.9189999999999996 C 2.842285273207347 4.99296672908023 0.17174831930001844 10.140393683316727 1.230809171739664 15.245651237201198 C 2.2898700241793097 20.350908791085672 6.787550961059875 24.011323803267512 12.0015 24.011323803267512 C 17.215449038940122 24.011323803267512 21.71312997582069 20.35090879108567 22.772190828260335 15.245651237201198 C 23.831251680699978 10.140393683316725 21.160714726792655 4.992966729080231 16.377000000000002 2.9190000000000014 C 16.068046775491354 2.7932428369608715 15.716730629442045 2.829814111946133 15.440302926120573 3.0165082035140114 C 15.163875222799103 3.2032022950818897 14.998735892899983 3.515435372044369 15 3.849 Z" stroke-linecap="round" />
</g>
		<g transform="matrix(21.33 0 0 21.33 -0.03 -170.79)"  >
<rect style="stroke: none; stroke-width: 1; stroke-dasharray: none; stroke-linecap: butt; stroke-dashoffset: 0; stroke-linejoin: miter; stroke-miterlimit: 4; fill: rgb(53,197,170); fill-rule: nonzero; opacity: 1;" vector-effect="non-scaling-stroke"  x="-1" y="-4" rx="1" ry="1" width="2" height="8" />
</g>
</g>
</g>
<g transform="matrix(NaN NaN NaN NaN 0 0)"  >
<g style=""   >
</g>
</g>
<g transform="matrix(NaN NaN NaN NaN 0 0)"  >
<g style=""   >
</g>
</g>
<g transform="matrix(NaN NaN NaN NaN 0 0)"  >
<g style=""   >
</g>
</g>
<g transform="matrix(NaN NaN NaN NaN 0 0)"  >
<g style=""   >
</g>
</g>
</svg>